<?xml version="1.0" standalone="no"?>
<!DOCTYPE svg PUBLIC "-//W3C//DTD SVG 20010904//EN"
 "http://www.w3.org/TR/2001/REC-SVG-20010904/DTD/svg10.dtd">
<svg version="1.0" xmlns="http://www.w3.org/2000/svg"
 width="512.000000pt" height="512.000000pt" viewBox="0 0 512.000000 512.000000"
 preserveAspectRatio="xMidYMid meet">
<metadata>
Created by potrace 1.11, written by Peter Selinger 2001-2013
</metadata>
<g transform="translate(0.000000,512.000000) scale(0.100000,-0.100000)"
fill="#000000" stroke="none">
<path d="M672 5035 c-168 -37 -339 -171 -414 -325 -72 -148 -68 -12 -68 -2163
0 -1893 0 -1935 20 -2011 29 -115 73 -189 165 -282 91 -92 184 -144 302 -169
102 -22 3654 -22 3756 0 182 38 339 162 422 330 76 154 70 -28 67 2140 -4
2143 0 2014 -68 2155 -51 104 -170 223 -274 274 -143 70 -19 66 -2030 65
-1493 0 -1826 -3 -1878 -14z m1523 -1358 c0 -5 -56 -30 -125 -56 -149 -57
-274 -120 -390 -195 -86 -56 -99 -71 -32 -37 120 61 360 137 537 170 405 76
846 23 1215 -145 92 -42 66 -18 -65 60 -89 53 -251 127 -352 160 -55 18 -61
24 -41 44 25 25 175 6 308 -37 85 -28 272 -122 332 -166 53 -39 81 -87 152
-263 134 -329 214 -674 236 -1016 10 -173 9 -176 -105 -284 -89 -85 -191 -145
-317 -188 -74 -25 -279 -59 -303 -51 -13 6 -155 176 -155 187 0 4 35 20 78 38
97 40 185 93 257 155 92 80 89 95 -7 43 -168 -89 -379 -160 -588 -198 -43 -7
-149 -13 -250 -13 -295 0 -541 61 -823 202 -114 56 -125 52 -50 -18 62 -59
102 -84 226 -147 l118 -59 -68 -84 c-83 -102 -100 -112 -173 -103 -224 25
-458 135 -583 274 -60 67 -72 113 -63 248 24 374 136 809 294 1145 45 96 53
105 108 142 127 85 295 157 445 190 67 15 184 16 184 2z"/>
<path d="M2046 2785 c-216 -77 -233 -394 -27 -499 79 -41 190 -23 256 41 69
67 106 193 84 286 -17 72 -93 149 -168 171 -66 19 -94 20 -145 1z"/>
<path d="M2920 2787 c-19 -6 -58 -34 -86 -62 -78 -75 -102 -172 -69 -282 32
-107 147 -191 246 -180 184 22 285 222 198 396 -58 115 -171 165 -289 128z"/>
</g>
</svg>
